<?xml version="1.0" standalone="no"?>
<!DOCTYPE svg PUBLIC "-//W3C//DTD SVG 20010904//EN"
 "http://www.w3.org/TR/2001/REC-SVG-20010904/DTD/svg10.dtd">
<svg version="1.0" xmlns="http://www.w3.org/2000/svg"
 width="674.000000pt" height="674.000000pt" viewBox="0 0 674.000000 674.000000"
 preserveAspectRatio="xMidYMid meet">
<metadata>
Created by potrace 1.14, written by Peter Selinger 2001-2017
</metadata>
<g transform="translate(0.000000,674.000000) scale(0.100000,-0.100000)"
fill="#000000" stroke="none">
<path d="M3248 6435 c-2 -2 -46 -5 -98 -9 -52 -3 -106 -7 -120 -10 -14 -2 -47
-8 -75 -12 -27 -4 -54 -8 -60 -10 -5 -1 -28 -5 -49 -8 -62 -10 -192 -44 -296
-77 -856 -274 -1526 -969 -1769 -1834 -17 -60 -33 -121 -35 -135 -3 -14 -8
-36 -11 -50 -32 -131 -48 -310 -49 -520 -1 -230 9 -372 35 -488 5 -23 12 -59
15 -80 24 -157 136 -479 231 -666 61 -119 199 -341 258 -415 139 -173 338
-375 470 -478 202 -158 410 -281 640 -379 53 -23 220 -83 245 -89 8 -2 58 -15
110 -29 52 -14 120 -30 150 -36 30 -6 66 -12 80 -15 25 -5 68 -11 135 -19 228
-28 449 -25 715 10 77 10 271 53 360 80 318 95 635 259 908 470 103 80 345
320 424 419 217 276 365 550 468 866 39 119 56 184 75 287 3 15 10 50 15 77 6
28 13 70 15 95 3 25 9 79 14 120 9 76 7 494 -2 540 -3 14 -8 44 -11 67 -3 22
-7 52 -10 65 -3 12 -8 39 -11 58 -16 114 -91 385 -130 475 -7 17 -33 75 -56
130 -308 715 -956 1278 -1724 1500 -109 31 -306 71 -395 80 -36 4 -78 9 -95
12 -30 5 -362 12 -367 8z"/>
<path d="M360 1842 c26 -64 68 -165 93 -225 25 -59 42 -109 38 -111 -3 -2 -53
-7 -110 -11 -57 -3 -124 -8 -150 -10 -25 -2 -84 -7 -130 -10 -47 -3 -86 -7
-87 -8 -2 -2 359 -201 590 -325 45 -24 85 -47 89 -51 4 -5 -10 -49 -33 -100
-22 -51 -40 -96 -40 -101 0 -9 28 -23 150 -75 36 -15 74 -31 85 -37 111 -51
672 -240 810 -273 11 -3 56 -14 100 -25 141 -36 394 -89 505 -106 19 -3 60 -9
90 -14 30 -5 79 -12 109 -15 30 -4 62 -8 71 -10 10 -2 54 -6 99 -10 44 -3 89
-8 98 -10 134 -25 983 -26 1118 -1 11 2 61 7 110 10 50 4 97 9 105 11 8 2 38
6 65 10 96 11 131 16 275 40 80 13 190 34 245 45 127 27 114 24 220 50 50 12
101 24 115 26 50 10 408 114 540 157 140 46 242 83 466 169 l132 50 -48 102
-47 101 31 16 c17 8 52 27 79 42 26 15 68 39 95 53 184 102 226 125 317 175
182 99 182 99 155 100 -14 0 -41 2 -60 4 -19 1 -78 5 -130 9 -52 3 -131 9
-175 13 -44 3 -85 6 -92 6 -11 0 -7 19 16 72 5 11 26 61 46 110 20 50 43 104
50 120 35 84 55 135 55 143 0 6 -21 0 -47 -13 -27 -12 -147 -71 -268 -130
-121 -59 -287 -140 -370 -180 -82 -40 -197 -96 -254 -124 l-104 -51 2 -84 2
-84 -118 -37 c-65 -20 -138 -43 -163 -50 -47 -15 -299 -80 -344 -90 -14 -3
-36 -7 -48 -10 -13 -3 -32 -7 -43 -9 -11 -2 -54 -11 -95 -19 -92 -19 -125 -26
-170 -33 -19 -3 -46 -7 -60 -10 -27 -4 -139 -21 -205 -29 -78 -11 -111 -14
-190 -21 -44 -3 -93 -8 -110 -10 -184 -21 -748 -21 -945 1 -19 2 -64 7 -100
10 -36 3 -78 8 -95 10 -16 2 -73 9 -125 16 -52 6 -104 13 -115 15 -10 2 -37 6
-60 9 -34 5 -91 16 -275 51 -70 14 -218 48 -320 75 -184 48 -419 118 -435 130
-6 4 -8 38 -5 85 5 75 -3 104 -30 104 -4 0 -124 57 -266 126 -613 299 -691
337 -721 350 l-31 14 48 -118z"/>
</g>
</svg>
